. 
 
 
http://www.torrentday.com :  Your Key To The Scene.


Now TvTeam with [No-RAR] Releases.



(((((((((((((= Enjoy No RAR releases =))))))))))))))))))))



...................................NFO:....................................

.      *********** ****    ****      ***      ******** *********** ****    *** **********
           *+*     +*+*+* *+*+*+   *+* *+*   *+*    *+*    *+*     *+*+*   *+* *+*        
           +*+     +*+ +*+*+ +*+  +*+   +*+  +*+           +*+     *+*+*+  +*+ +*+        
           +$+     +$+  +*+  +$+ +$++*++$++* *$*           +$+     +$+ +*+ +$+ +$++*++$  
           +$+     +$+       +$+ +$+     +$+ +$+   +$+$    +$+     +$+  +$+$+$ +$+        
           $+$     $+$       $+$ $+$     $+$ $+$    $+$    $+$     $+$   $+$+$ $+$        
       $$$$$$$$$$$ $$$       $$$ $$$     $$$  $$$$$$$$ $$$$$$$$$$$ $$$    $$$$ $$$$$$$$$$     
                                                



                       Another Fine Release Brought to you from - IMAGiNE                   
                                   

********************************************************************************************************************                                
           Prince of Persia: The Sands of Time TS V2 READNFO XViD IMAGiNE
********************************************************************************************************************
6.8/10                             
Video Codec.......:XVID                                     Release Date......:30/05/10
Audio Codec.......:AC3                                      Theatre Date......:28/05/10
Audio Bitrate.....:128                                      Runtime...........:1h 44mn
Subtitles.........:NIL                                      Language..........:ENGLISH
Resolution........:640 x 272                                IMDb URL..........:http://www.imdb.com/title/tt0473075/


[color=yellow]DETAILS:[/color]

Video
ID                               : 0
Format                           : MPEG-4 Visual
Format profile                   : Advanced Simple@L5
Format settings, BVOP            : Yes
Format settings, QPel            : No
Format settings, GMC             : No warppoints
Format settings, Matrix          : Default (MPEG)
Muxing mode                      : Packed bitstream
Codec ID                         : XVID
Codec ID/Hint                    : XviD
Duration                         : 1h 43mn
Bit rate                         : 1 757 Kbps
Width                            : 640 pixels
Height                           : 272 pixels
Display aspect ratio             : 2.35
Frame rate                       : 25.000 fps
Resolution                       : 24 bits
Colorimetry                      : 4:2:0
Scan type                        : Progressive
Bits/(Pixel*Frame)               : 0.404
Stream size                      : 1.28 GiB (93%)
Writing library                  : XviD 1.2.1 (UTC 2008-12-04)

Audio
ID                               : 1
Format                           : AC-3
Format/Info                      : Audio Coding 3
Codec ID                         : 2000
Duration                         : 1h 43mn
Bit rate mode                    : Constant
Bit rate                         : 128 Kbps
Channel(s)                       : 2 channels
Channel positions                : L R
Sampling rate                    : 48.0 KHz
Stream size                      : 95.2 MiB (7%)
Alignment                        : Aligned on interleaves
Interleave, duration             : 40 ms (1.00 video frame)
Interleave, preload duration     : 512 ms



[color=yellow]NOTES:[/color]

IMAGiNE bringing you another release..... Prince of Persia: The Sands of Time v2

Right here we go again with our v2 of this flick....same sources used both video and audio as our v1.
However we resynced the audio a different way like we did we our dvdr.....and we have test this with nero 
and convertx version 3 xxx and 4 xxx and it STAYS insync after converting ;-)
Also we've altered our filtering on this aswell ....


Enjoy :)


[color=yellow]SCREENS:[/color]

[IMG]http://imagine.takagari.com/Prince%20of%20Persia:%20The%20Sands%20of%20Time%20TS%20V2/vlcsnap-11541.png[/IMG]
[IMG]http://imagine.takagari.com/Prince%20of%20Persia:%20The%20Sands%20of%20Time%20TS%20V2/vlcsnap-12524.png[/IMG]
[IMG]http://imagine.takagari.com/Prince%20of%20Persia:%20The%20Sands%20of%20Time%20TS%20V2/vlcsnap-14285.png[/IMG]
[IMG]http://imagine.takagari.com/Prince%20of%20Persia:%20The%20Sands%20of%20Time%20TS%20V2/vlcsnap-15535.png[/IMG]
[IMG]http://imagine.takagari.com/Prince%20of%20Persia:%20The%20Sands%20of%20Time%20TS%20V2/vlcsnap-15690.png[/IMG]
[IMG]http://imagine.takagari.com/Prince%20of%20Persia:%20The%20Sands%20of%20Time%20TS%20V2/vlcsnap-21598.png[/IMG]

[color=yellow]GREETS:[/color]

FLAWL3SS,ViSiON,FUSiON,Rx,SecretMyth,BirdFlu,ELEKTRI4KA
And to all the other p2p grps past and present 

Special thanks to Python-Lair for the server :)
And special thanks to supreme-speeds.com for the ripbox :)
Also a big thanks to The Scene Nation for all the help  :)

[COLOR=RED]Looking for these,syncers,cammers,silver supplier.....Have anything to offer????......
Contact us imaginegroup@hushmail.com[/COLOR]